<?xml version="1.0" standalone="no"?>
<!DOCTYPE svg PUBLIC "-//W3C//DTD SVG 20010904//EN"
 "http://www.w3.org/TR/2001/REC-SVG-20010904/DTD/svg10.dtd">
<svg version="1.0" xmlns="http://www.w3.org/2000/svg"
 width="92.000000pt" height="92.000000pt" viewBox="0 0 92.000000 92.000000"
 preserveAspectRatio="xMidYMid meet">
<metadata>
Created by potrace 1.11, written by Peter Selinger 2001-2013
</metadata>
<g transform="translate(0.000000,92.000000) scale(0.100000,-0.100000)"
fill="#000000" stroke="none">
<path d="M372 886 c-23 -8 -53 -21 -66 -30 -14 -8 -39 -18 -57 -21 -18 -3 -49
-15 -69 -26 -85 -48 -82 -119 8 -178 l51 -35 -20 -32 c-22 -37 -18 -77 11 -97
9 -6 27 -32 40 -57 12 -25 31 -55 43 -67 19 -22 19 -24 3 -42 -9 -10 -47 -26
-84 -36 -46 -11 -74 -24 -91 -43 -27 -31 -101 -142 -125 -189 l-17 -33 461 0
460 0 -33 61 c-48 86 -107 164 -136 182 -14 8 -49 20 -78 27 -28 6 -59 20 -69
31 -17 18 -16 20 4 42 12 12 30 44 42 70 12 26 27 47 34 47 16 0 36 43 31 67
-2 10 -11 33 -20 51 -10 18 -15 34 -14 36 2 1 21 13 41 25 48 29 78 71 78 109
0 41 -49 89 -98 97 -20 3 -61 15 -91 27 -68 26 -180 33 -239 14z"/>
</g>
</svg>
